<svg id="Layer_1" data-name="Layer 1" xmlns="http://www.w3.org/2000/svg" viewBox="0 0 182.36 182.36"><defs><style>.cls-1{fill:#b5c7e8;}.cls-2,.cls-4{fill:none;stroke-miterlimit:10;}.cls-2{stroke:#1d1d1b;}.cls-3{fill:#1d1d1b;}.cls-4{stroke:#fad0c0;}</style></defs><path class="cls-1" d="M266.41,387.65q-.69,34.5-1,69t-.13,69.09q.09,19.46.31,38.9c0,1.39,2.93.87,2.92-.28q-.39-34.54-.36-69.08t.5-69.07q.26-19.43.64-38.84c0-1.39-2.89-.88-2.92.28Z" transform="translate(-192.78 -385.32)"/><circle class="cls-2" cx="91.18" cy="91.18" r="90.68"/><path class="cls-3" d="M317.92,474.47c-6.95-3-14.66-3.56-22.14-3.1-.37,0-1.59.59-.64.53,7.23-.44,14.7.13,21.41,3.05.38.16,1.47-.44,1.37-.48Z" transform="translate(-192.78 -385.32)"/><path class="cls-3" d="M333.42,427.48q-10.76,29.89-19.71,60.41c-1.45,4.94-2.95,9.88-4.19,14.87a41.5,41.5,0,0,0-1.47,13.88c.75,7.48,5,13.39,11,17.64,7.57,5.37,16.88,8,26.06,8.5.35,0,1.66-.61.92-.65-14.3-.84-33.19-7.73-36.22-23.71a34.73,34.73,0,0,1,.73-14.13c1.07-4.82,2.53-9.55,3.91-14.29q4.31-14.83,9.06-29.55,5.39-16.69,11.34-33.21c.12-.33-1.29-.17-1.44.24Z" transform="translate(-192.78 -385.32)"/><line class="cls-4" x1="77.18" y1="2.19" x2="77.39" y2="180.17"/><path class="cls-3" d="M299.27,440.55a2.34,2.34,0,0,1-.14-2.73,2.53,2.53,0,0,1,3.61-.94c2.65,1.41,3.1,4.64,2.91,7.34a170.8,170.8,0,0,1-2.6,17.7,302.67,302.67,0,0,1-8.19,34.52q-3,9.92-6.71,19.56c-.3.77,1.16.76,1.39.16a286.14,286.14,0,0,0,11.92-39.27q2.3-10,3.92-20.22c.55-3.43,1.06-6.87,1.49-10.31.37-2.85.7-6.08-1.08-8.55-1.38-1.93-4-3.11-6.25-1.94-1.86,1-3,3.53-1.6,5.32.41.5,1.79-.07,1.33-.64Z" transform="translate(-192.78 -385.32)"/></svg>