<?xml version="1.0" encoding="utf-8"?>
<!-- Generator: Adobe Illustrator 24.1.1, SVG Export Plug-In . SVG Version: 6.00 Build 0)  -->
<svg version="1.1" id="Layer_1" xmlns="http://www.w3.org/2000/svg" xmlns:xlink="http://www.w3.org/1999/xlink" x="0px" y="0px"
	 viewBox="0 0 595.28 841.89" style="enable-background:new 0 0 595.28 841.89;" xml:space="preserve">
<style type="text/css">
	.st0{fill:#FFFFFF;stroke:#000000;stroke-width:5;stroke-miterlimit:10;}
	.st1{fill:#D9D2EA;}
	.st2{fill:#CBBBA0;}
</style>
<circle class="st0" cx="297.64" cy="399.89" r="154.5"/>
<g>
	<g>
		<path class="st1" d="M275.82,264.7c-1.85,0.88-4.01,1.41-6.03,1.47c-0.27,0.04-0.54,0.04-0.81,0c-0.38-0.04-0.44-0.04-0.18,0
			c0-0.02,0.77,0.26,0.15,0c0.24,0.1,0.47,0.21,0.7,0.34c0.93,0.52,1.71,1.23,2.4,2.04c-0.14-0.16-0.27-0.32-0.41-0.48
			c2.57,3.19,2.92,7.1,2.24,11.03c0.04-0.21,0.07-0.41,0.11-0.62c-0.68,3.49-2.07,6.75-3.48,9.99c-1.42,3.25-2.83,6.51-4.25,9.76
			c-2.9,6.65-5.81,13.3-8.73,19.94c-5.84,13.27-11.76,26.5-17.85,39.66c-6.06,13.11-12.29,26.14-18.79,39.04
			c-6.11,12.14-12.2,24.44-19.31,36.04c-3.38,5.51-7.07,10.8-11.42,15.08c-1.14,1.12-2.33,2.19-3.58,3.19
			c-0.24,0.19-0.48,0.38-0.72,0.56c-0.21,0.16-1.3,1.01-0.29,0.24c-0.57,0.43-1.19,0.81-1.8,1.18c-0.3,0.19-0.61,0.37-0.92,0.55
			c-0.21,0.12-0.41,0.23-0.62,0.35c-0.56,0.3-0.42,0.23,0.43-0.22c-0.62,0.16-1.36,0.6-1.94,0.89c1.85-0.95,0.88-0.35,0.35-0.15
			c-0.33,0.12-0.68,0.22-1.01,0.35c1.55-0.59,4.98-1.76,5.89-0.8c-0.24-0.25-0.56-0.41-0.8-0.68c0.14,0.16,0.27,0.32,0.41,0.48
			c-1.43-1.95-1.05-4.79-0.65-7.01c-0.04,0.21-0.07,0.41-0.11,0.62c1.05-5.78,2.53-11.64,5.27-16.87c0.61-1.16,1.29-2.29,2.06-3.35
			c0.21-0.28,0.43-0.55,0.64-0.83c0.24-0.32-0.09,0.09-0.12,0.13c0.1-0.11,0.19-0.22,0.29-0.32c0.42-0.45,0.86-0.88,1.33-1.29
			c0.18-0.15,0.52-0.33,0.65-0.52c0.01-0.01-0.89,0.57-0.46,0.33c0.12-0.07,0.23-0.15,0.34-0.22c0.07-0.04,0.43-0.29,0.47-0.28
			c0.05,0.02-1.26,0.65-0.78,0.41c1.17-0.57-1.48,0.52-0.55,0.21c0.27-0.09-2.01,0.59-1.26,0.39c0.75-0.2-1.56,0.34-1.28,0.28
			c1.05-0.2-1.77,0.18-0.69,0.09c0.92-0.08-1.54-0.07-0.28,0.02c0.07,0.01,0.75,0.09,0.22,0.01c-0.54-0.08,0.33,0.08,0.42,0.1
			c3.17,0.66,6.17,3.19,8.32,5.73c-0.14-0.16-0.27-0.32-0.41-0.48c5.57,6.8,7.47,15.99,8.95,24.43c1.54,8.75,2.71,17.77,6.85,25.77
			c1.84,3.55,4.37,6.96,7.71,9.24c4.36,2.98,9.81,3.67,14.96,3.04c7.05-0.87,13.89-3.38,19.86-7.21c4.59-2.94,8.74-6.49,12.72-10.19
			c3.84-3.57,7.63-7.18,11.65-10.56c1.98-1.67,4-3.3,6.05-4.88c1.02-0.78,2.05-1.55,3.1-2.31c0.23-0.17,0.46-0.33,0.69-0.5
			c-0.77,0.55,0.01,0,0.2-0.14c0.58-0.41,1.17-0.81,1.76-1.2c2.16-1.45,4.37-2.84,6.63-4.15c1.03-0.59,2.07-1.15,3.11-1.72
			c0.79-0.43-1.33,0.67-0.09,0.04c0.25-0.12,0.49-0.25,0.74-0.38c0.62-0.31,1.24-0.61,1.87-0.91c1.12-0.53,2.25-1.03,3.4-1.51
			c0.25-0.11,0.51-0.21,0.76-0.32c-1.71,0.75-0.93,0.37-0.53,0.22c0.7-0.27,1.41-0.54,2.11-0.79c0.58-0.21,1.16-0.41,1.74-0.6
			c0.26-0.09,0.52-0.16,0.78-0.25c-2.07,0.71-1.21,0.37-0.73,0.23c1.31-0.38,2.62-0.73,3.95-1.06c0.51-0.12,1.33-0.16-0.75,0.17
			c0.27-0.04,0.54-0.12,0.8-0.17c0.68-0.14,1.36-0.27,2.04-0.38c0.31-0.05,0.62-0.11,0.94-0.15c0.08-0.01,0.16-0.02,0.23-0.04
			c0.75-0.11,0.62-0.1-0.38,0.05c0.65-0.27,1.64-0.2,2.35-0.27c0.63-0.06,1.25-0.12,1.88-0.16c0.39-0.03,0.79-0.05,1.18-0.08
			c0.34-0.02,1.42-0.16,0.1-0.01c1.39-0.15,2.86-0.06,4.25-0.04c1.42,0.02,2.84,0.09,4.25,0.18c0.63,0.04,1.26,0.09,1.89,0.14
			c-0.8-0.07,0.22,0.02,0.41,0.04c0.47,0.05,0.94,0.1,1.42,0.16c2.92,0.34,5.82,0.81,8.71,1.38c11.41,2.25,22.27,6.61,33.67,8.82
			c12.83,2.48,26.11,1.04,37.68-5.23c7.82-4.24,14.63-11.47,16.66-20.32c0.51-2.24,0.78-4.52,0.74-6.82
			c-0.01-0.82-2.23-0.89-2.52-0.9c-1.71-0.06-3.65,0.3-5.29,0.76c-1.69,0.48-3.48,1.02-4.96,1.98c-0.73,0.48-1.74,1.04-1.73,2.04
			c0.03,1.73-0.11,3.43-0.41,5.14c0.04-0.21,0.07-0.41,0.11-0.62c-0.6,3.15-1.77,6.14-3.43,8.88c-0.79,1.3-1.68,2.54-2.67,3.69
			c0.37-0.43-0.35,0.37-0.45,0.48c-0.24,0.25-0.48,0.51-0.73,0.75c-0.58,0.57-1.18,1.13-1.8,1.65c-0.58,0.49-1.17,0.95-1.78,1.41
			c-0.74,0.56,0.66-0.43-0.12,0.08c-0.39,0.25-0.77,0.51-1.17,0.75c-0.29,0.18-0.59,0.36-0.89,0.53c-0.15,0.08-0.3,0.16-0.45,0.25
			c-0.66,0.38,1.15-0.57,0.47-0.24c-0.67,0.32-1.34,0.62-2.01,0.93c2.02-0.94,0.78-0.31,0.26-0.12c-0.32,0.11-0.64,0.22-0.95,0.33
			c-0.61,0.21,1.1-0.37,1.11-0.34c0,0.01-0.56,0.16-0.64,0.18c-0.16,0.04-0.32,0.08-0.48,0.12c-0.83,0.25,1.83-0.35,0.98-0.22
			c-0.38,0.06-0.76,0.14-1.13,0.22c-0.98,0.19,1.37-0.15,0.07-0.01c-0.46,0.05-0.93,0.1-1.39,0.14c-0.28,0.02-0.64,0.08-0.93,0.06
			c0.46,0.03,0.86-0.02,0.16-0.01c-1.01,0.01-2.01,0.01-3.02-0.03c-0.46-0.02-0.93-0.05-1.39-0.08c-0.23-0.02-0.46-0.03-0.7-0.05
			c0.68,0.06-0.09-0.02-0.38-0.05c-2.02-0.24-4.02-0.58-6.01-0.99c-4.2-0.88-8.32-2.07-12.42-3.29c-8.17-2.44-16.35-4.81-24.79-6.13
			c-8.93-1.39-18.1-1.81-27.09-0.64c-9.45,1.23-18.62,3.83-27.33,7.7c-14.53,6.44-27.31,16.29-38.84,27.1
			c-2.74,2.57-5.45,5.18-8.32,7.61c-1.46,1.24-2.97,2.41-4.51,3.56c0.67-0.5-0.08,0.06-0.35,0.24c-0.34,0.23-0.69,0.46-1.04,0.68
			c-0.8,0.51-1.62,0.99-2.44,1.46c-0.91,0.52,0.19-0.11,0.32-0.16c-0.18,0.06-0.36,0.18-0.53,0.26c-0.35,0.17-0.7,0.33-1.06,0.49
			c-1.39,0.61,1.2-0.42,0.07-0.03c-0.18,0.06-0.36,0.12-0.54,0.19c-0.86,0.33,1.72-0.47,0.83-0.26c-0.65,0.16-2.05,0.28,0.33-0.05
			c-0.18,0.02-0.36,0.06-0.54,0.1c-0.66,0.14,0.89-0.16,0.89-0.12c0,0.05-0.99,0.08-1.08,0.1c0.12-0.02,1.46,0,0.47-0.04
			c-0.24-0.01-0.48-0.01-0.72-0.02c-0.91-0.03,0.71,0.14-0.2-0.02c-0.42-0.08-0.84-0.14-1.26-0.24c-1.02-0.24-1.16-0.29-2.02-0.67
			c-1.26-0.56-2.44-1.27-3.53-2.12c-1.13-0.88-2.14-1.89-3.06-2.98c0.14,0.16,0.27,0.32,0.41,0.48c-6.63-8.04-8.23-19.11-9.89-29.06
			c-1.67-9.98-3.75-21.41-11.46-28.67c-2.07-1.95-4.5-3.34-7.22-4.16c-4.04-1.22-8.63-0.53-12.62,0.56
			c-6.11,1.68-11.25,4.87-14.61,10.3c-2.63,4.25-4.17,9.14-5.32,13.97c-0.56,2.38-1.15,4.83-1.36,7.27
			c-0.19,2.19-0.02,4.99,2.13,6.22c2.23,1.28,5.34,0.72,7.71,0.29c2.7-0.49,5.31-1.41,7.84-2.43c2.96-1.19,5.83-2.64,8.47-4.45
			c4.91-3.36,9.03-7.51,12.7-12.17c7.55-9.58,13.06-20.71,18.7-31.47c12.93-24.67,24.74-49.9,36.13-75.31
			c5.7-12.73,11.3-25.5,16.87-38.28c1.42-3.25,2.84-6.5,4.25-9.76c1.28-2.95,2.54-5.94,3.2-9.1c0.64-3.08,0.89-6.39-0.37-9.35
			c-0.98-2.3-2.82-4.63-5.18-5.61c-1.84-0.77-3.74-0.9-5.71-0.75c-3.19,0.24-6.48,1.11-9.37,2.49c-0.78,0.37-2.6,1.18-3,2.13
			c-0.36,0.87,0.41,1.26,1.16,1.4C268.86,267.22,272.99,266.05,275.82,264.7L275.82,264.7z"/>
	</g>
</g>
<g>
	<g>
		<path class="st2" d="M396.58,313.81c-12.27,1.33-22.79,8.66-29.7,18.68c-7.09,10.29-10.5,22.33-12.01,34.61
			c-1.86,15.14-1.04,30.45,0.11,45.6c1.19,15.67,2.37,31.31,2.73,47.02c0.4,17.67,0.02,35.35-1.11,52.98
			c-0.12,1.8,2.41,1.75,3.67,1.55c1.14-0.18,2.29-0.51,3.3-1.09c0.56-0.32,1.64-0.97,1.69-1.69c1.97-30.66,1.55-61.35-0.86-91.97
			c-1.17-14.82-2.51-29.73-1.66-44.6c0.73-12.71,2.89-25.58,8.83-36.96c1.38-2.64,3-5.16,4.8-7.52c1.86-2.44,3.61-4.36,5.76-6.21
			c0.6-0.51,1.21-1.01,1.84-1.48c0.27-0.2,0.54-0.4,0.81-0.6c0.17-0.12,0.85-0.57,0.31-0.22c0.65-0.42,1.32-0.83,2-1.21
			c0.29-0.16,0.58-0.32,0.88-0.47c0.2-0.1,0.4-0.2,0.59-0.3c-0.44,0.21-0.51,0.25-0.23,0.12c0.68-0.25,1.32-0.58,2-0.83
			c0.22-0.08,1.25-0.55,0.13-0.06c0.35-0.15,0.76-0.24,1.13-0.34c0.27-0.08,0.54-0.15,0.82-0.22c0.22-0.05,0.44-0.11,0.66-0.16
			c-0.62,0.12-0.68,0.13-0.17,0.04c0.8-0.14,1.59-0.26,2.39-0.34c1.53-0.17,4.54-1.03,4.99-2.78
			C400.72,313.53,397.49,313.71,396.58,313.81L396.58,313.81z"/>
	</g>
</g>
<g>
	<g>
		<path class="st2" d="M337.53,308.16c-6.59,0.48-12.73,3.62-17.19,8.45c-4.24,4.59-7,10.27-8.97,16.15
			c-2.21,6.59-3.14,13.56-3.84,20.45c-0.8,7.9-1.07,15.85-1.01,23.79c0.13,16.12,1.56,32.18,2.76,48.25
			c1.17,15.76,2.11,31.59,1.16,47.39c-0.48,7.93-1.44,15.84-3.08,23.62c-0.75,3.57-1.58,7.16-2.73,10.62
			c-0.45,1.37-0.99,2.7-1.68,4.06c-0.35,0.7-0.74,1.39-1.16,2.06c-0.54,0.85-0.67,1.04-1.16,1.6c-0.47,0.54-0.97,1.04-1.5,1.51
			c0.53-0.47-0.32,0.23-0.49,0.35c-0.35,0.24-0.7,0.46-1.07,0.67c-1.45,0.84-2.31,2.92-0.61,3.96c1.88,1.15,4.47,0.34,6.2-0.66
			c6.11-3.55,9.07-10.2,10.93-16.71c2.12-7.43,3.46-15.09,4.32-22.76c1.75-15.7,1.3-31.56,0.31-47.3
			c-0.98-15.76-2.57-31.48-3.2-47.26c-0.61-15.49-0.43-31.32,2.54-46.59c1.14-5.84,2.84-11.11,5.83-16.22
			c0.36-0.62,0.74-1.23,1.14-1.83c0.18-0.27,0.37-0.54,0.56-0.81c0.1-0.14,0.68-0.92,0.33-0.47c0.84-1.09,1.77-2.12,2.77-3.07
			c0.23-0.21,0.46-0.42,0.69-0.63c0.51-0.46-0.47,0.34,0.31-0.24c0.53-0.4,1.07-0.79,1.64-1.14c0.39-0.25,0.73-0.4,0.09-0.08
			c0.32-0.16,0.63-0.33,0.95-0.48c0.28-0.13,0.56-0.25,0.84-0.37c0.04-0.02,0.39-0.19,0.43-0.17c-0.05-0.03-0.97,0.3-0.26,0.1
			c0.3-0.09,0.59-0.18,0.89-0.26c0.17-0.05,1.33-0.37,0.64-0.17c-0.64,0.18,0.32-0.04,0.51-0.07c0.38-0.05,0.75-0.08,1.13-0.11
			c1.75-0.13,4.56-1.24,4.86-3.24C341.74,308.43,338.97,308.06,337.53,308.16L337.53,308.16z"/>
	</g>
</g>
</svg>
